<svg xmlns="http://www.w3.org/2000/svg" viewBox="0 0 800 280" fill="none">
  <!-- Background -->
  <rect width="800" height="280" rx="12" fill="#f8fafc"/>
  <!-- Header -->
  <text x="30" y="30" font-family="system-ui" font-size="9" font-weight="700" fill="#2563eb">SUBSCRIPTION</text>
  <text x="30" y="50" font-family="system-ui" font-size="16" font-weight="700" fill="#1e293b">Choose Your Plan</text>
  <!-- Billing toggle -->
  <rect x="600" y="25" width="170" height="30" rx="8" fill="white" stroke="#e2e8f0" stroke-width="1.5"/>
  <rect x="604" y="29" width="80" height="22" rx="6" fill="#1e293b"/>
  <text x="624" y="44" font-family="system-ui" font-size="10" font-weight="500" fill="white">Monthly</text>
  <text x="700" y="44" font-family="system-ui" font-size="10" fill="#64748b">Yearly</text>
  <!-- Starter Card -->
  <rect x="20" y="70" width="240" height="200" rx="12" fill="white" stroke="#e2e8f0" stroke-width="1.5"/>
  <rect x="40" y="88" width="32" height="32" rx="8" fill="#f1f5f9" stroke="#e2e8f0" stroke-width="1"/>
  <text x="50" y="110" font-family="system-ui" font-size="14" fill="#475569">⭐</text>
  <text x="40" y="140" font-family="system-ui" font-size="13" font-weight="700" fill="#1e293b">Starter</text>
  <text x="40" y="155" font-family="system-ui" font-size="10" fill="#64748b">For individual educators</text>
  <text x="40" y="180" font-family="system-ui" font-size="22" font-weight="700" fill="#1e293b">$0</text>
  <text x="70" y="180" font-family="system-ui" font-size="10" fill="#94a3b8">/mo</text>
  <text x="40" y="200" font-family="system-ui" font-size="9" fill="#64748b">✓ 1 Class · 10 Students · 5 Lessons</text>
  <rect x="40" y="225" width="200" height="28" rx="6" fill="#1e293b"/>
  <text x="100" y="243" font-family="system-ui" font-size="11" fill="white">Get Started</text>
  <!-- Medium Card (Featured) -->
  <rect x="280" y="65" width="240" height="210" rx="12" fill="white" stroke="#3b82f6" stroke-width="2"/>
  <!-- Most Popular badge -->
  <rect x="345" y="56" width="90" height="18" rx="9" fill="#3b82f6"/>
  <text x="358" y="68" font-family="system-ui" font-size="8" font-weight="700" fill="white">MOST POPULAR</text>
  <rect x="300" y="88" width="32" height="32" rx="8" fill="#dbeafe" stroke="#bfdbfe" stroke-width="1"/>
  <text x="310" y="110" font-family="system-ui" font-size="14" fill="#1d4ed8">🚀</text>
  <text x="300" y="140" font-family="system-ui" font-size="13" font-weight="700" fill="#1e293b">Medium</text>
  <text x="300" y="155" font-family="system-ui" font-size="10" fill="#64748b">For growing teams</text>
  <text x="300" y="180" font-family="system-ui" font-size="22" font-weight="700" fill="#1e293b">$19</text>
  <text x="340" y="180" font-family="system-ui" font-size="10" fill="#94a3b8">/mo</text>
  <text x="300" y="200" font-family="system-ui" font-size="9" fill="#64748b">✓ 10 Classes · 50 Students · 20 Lessons</text>
  <rect x="300" y="230" width="200" height="28" rx="6" fill="#3b82f6"/>
  <text x="350" y="248" font-family="system-ui" font-size="11" fill="white">Subscribe Now</text>
  <!-- Highlight ring -->
  <rect x="276" y="61" width="248" height="218" rx="14" fill="none" stroke="#60a5fa" stroke-width="2" stroke-dasharray="4 2"/>
  <!-- Enterprise Card -->
  <rect x="540" y="70" width="240" height="200" rx="12" fill="white" stroke="#e2e8f0" stroke-width="1.5"/>
  <rect x="560" y="88" width="32" height="32" rx="8" fill="#f5f3ff" stroke="#e9d5ff" stroke-width="1"/>
  <text x="570" y="110" font-family="system-ui" font-size="14" fill="#7c3aed">💎</text>
  <text x="560" y="140" font-family="system-ui" font-size="13" font-weight="700" fill="#1e293b">Enterprise</text>
  <text x="560" y="155" font-family="system-ui" font-size="10" fill="#64748b">For large organizations</text>
  <text x="560" y="180" font-family="system-ui" font-size="22" font-weight="700" fill="#1e293b">$49</text>
  <text x="600" y="180" font-family="system-ui" font-size="10" fill="#94a3b8">/mo</text>
  <text x="560" y="200" font-family="system-ui" font-size="9" fill="#64748b">✓ Unlimited everything</text>
  <rect x="560" y="225" width="200" height="28" rx="6" fill="#7c3aed"/>
  <text x="610" y="243" font-family="system-ui" font-size="11" fill="white">Subscribe Now</text>
</svg>
